inDegrees=no
num_controls=7
num_derivatives=13
num_iterations=86
num_multipliers=7
num_parameters=0
num_slacks=7
num_states=26
objective=0.444965
objective_accelerations=0.057355
objective_balance=0.003462
objective_effort=0.022999
objective_height=0.355652
objective_ligament=0.005498
solver_duration=1362.124833
status=Solve_Succeeded
success=true
DataType=double
version=3
OpenSimVersion=4.5
endheader
time	/jointset/ground_pelvis/pelvis_tilt/value	/jointset/ground_pelvis/pelvis_tx/value	/jointset/ground_pelvis/pelvis_ty/value	/jointset/hip_l/hip_flexion_l/value	/jointset/hip_l/hip_adduction_l/value	/jointset/hip_l/hip_rotation_l/value	/jointset/back/lumbar_extension/value	/jointset/patellofemoral_l/patellar_flexion_l/value	/jointset/knee_l/knee_flexion_l/value	/jointset/knee_l/knee_adduction_l/value	/jointset/knee_l/knee_rotation_l/value	/jointset/ankle_l/ankle_angle_l/value	/jointset/subtalar_l/subtalar_angle_l/value	/jointset/ground_pelvis/pelvis_tilt/speed	/jointset/ground_pelvis/pelvis_tx/speed	/jointset/ground_pelvis/pelvis_ty/speed	/jointset/hip_l/hip_flexion_l/speed	/jointset/hip_l/hip_adduction_l/speed	/jointset/hip_l/hip_rotation_l/speed	/jointset/back/lumbar_extension/speed	/jointset/patellofemoral_l/patellar_flexion_l/speed	/jointset/knee_l/knee_flexion_l/speed	/jointset/knee_l/knee_adduction_l/speed	/jointset/knee_l/knee_rotation_l/speed	/jointset/ankle_l/ankle_angle_l/speed	/jointset/subtalar_l/subtalar_angle_l/speed	/forceset/tau_hip_flexion_l	/forceset/tau_hip_adduction_l	/forceset/tau_hip_rotation_l	/forceset/tau_knee_flexion_l	/forceset/tau_ankle_angle_l	/forceset/tau_subtalar_angle_l	/forceset/tau_lumbar_extension	lambda_cid13_p0	lambda_cid13_p1	lambda_cid13_p2	lambda_cid13_p3	lambda_cid13_p4	lambda_cid13_p5	lambda_cid14_p0	/jointset/ground_pelvis/pelvis_tilt/accel	/jointset/ground_pelvis/pelvis_tx/accel	/jointset/ground_pelvis/pelvis_ty/accel	/jointset/hip_l/hip_flexion_l/accel	/jointset/hip_l/hip_adduction_l/accel	/jointset/hip_l/hip_rotation_l/accel	/jointset/back/lumbar_extension/accel	/jointset/patellofemoral_l/patellar_flexion_l/accel	/jointset/knee_l/knee_flexion_l/accel	/jointset/knee_l/knee_adduction_l/accel	/jointset/knee_l/knee_rotation_l/accel	/jointset/ankle_l/ankle_angle_l/accel	/jointset/subtalar_l/subtalar_angle_l/accel	gamma_cid13_p0	gamma_cid13_p1	gamma_cid13_p2	gamma_cid13_p3	gamma_cid13_p4	gamma_cid13_p5	gamma_cid14_p0
1	-0.5421153136440406	-0.07389038039670551	0.5726140728915815	1.828723780235868	-0.4688946528506474	0.01830406482420464	-0.2617675377626447	1.402097719142853	1.402097719142866	-0.08077333964832586	-0.174527446757225	0.2393836438452482	-0.0006283127119165084	-0.01496242913112502	0.01249081738280294	0.005335266357466467	-0.01297406376065507	-0.002932509097948773	0.0004126014770880499	0.0002641188918875024	-0.004100191667002902	-0.004100191667002867	-0.00577319965792865	-0.0001392555041373403	0.02296548685639651	0.009976925144440466	-0.3328767845643278	0.02167898172716813	0.0004632490235861099	-0.302640937554239	0.0198471910793048	0.02704038278695308	0.2842862557735131	-33.48047537117032	-6.261800065105106	1.096836641107833	10.93906394800438	-642.2483120323394	-45.16517272964266	-1.084655559560264	1.536899635734579	0.1783403961030718	1.957357010509212	-6.741235973163612	-0.07234331994432892	-2.337342845345414	-0.02090308027350552	-5.341513653338114	-5.341513653338455	-0.6290715751942879	-0.02990882086790343	-0.8252051590553248	-0.5539790942426234	6.411986577629407e-09	2.374580608234886e-08	-9.840208792884488e-09	1.833333750851439e-09	-1.51899038993798e-09	3.572455727041009e-08	1.876946556817611e-09
1.01	-0.5421889683833891	-0.07375660857318174	0.5727651438197245	1.828258251035214	-0.4689264725884694	0.01819027611697855	-0.2617649906206438	1.401789788357448	1.401789788357482	-0.08085971262430076	-0.1745287883952285	0.239572225092223	-0.0005546478904897381	0.0002348449213035799	0.01426553208605092	0.02487471434745419	-0.08012304469383638	-0.003418422818381963	-0.02315468946726733	0.0002424749329628023	-0.05748312752962921	-0.05748312752963099	-0.01149828029175208	-0.0001092631225912803	0.01474531291485109	0.004769206984527544	-0.3327741610446877	0.02182661993150573	0.0004457680333842156	-0.3024449047456497	0.01964797002012587	0.02705356861805398	0.2842081295843779	-33.53029059599476	-6.262354942157008	1.100980674061723	10.88467578636677	-642.0879746809754	-45.16386384542152	-1.090178665887249	1.511644576125148	0.1773356567642079	1.951605448518674	-6.700420920406114	-0.03476460636478126	-2.364080119400093	0.006779759835248061	-5.336255820135707	-5.336255820135817	-0.5437622668599387	0.02243391031591862	-0.8212399914341715	-0.5021991964165529	-2.664737745194553e-09	1.439124816742102e-08	3.274149578778673e-08	4.64527224992825e-09	-1.242076204478956e-08	8.364600173975831e-08	-1.012879697941877e-08
1.02	-0.542110549724988	-0.0736050298727597	0.5731114825788226	1.827121493671824	-0.4689627613051507	0.01784128292020888	-0.2617627449555239	1.400948113759937	1.400948113759986	-0.08100324359850336	-0.1745292339809585	0.2396784413038355	-0.0005326664545724582	0.01545225041886049	0.01605219276245772	0.04438883254844309	-0.1472196963074446	-0.003826304869684933	-0.04662829642840664	0.0002038235155252808	-0.1108489540886887	-0.1108489540886929	-0.01720479930092289	3.995496495404888e-05	0.006492479784104564	-0.0003597519574253678	-0.3326715375250585	0.02197425813580263	0.00042828704324894	-0.302248871937062	0.01944874896093515	0.02706675444909335	0.2841300033952378	-33.58640572341786	-6.261517012348371	1.104571739375366	10.8595893261848	-642.0141295375867	-45.14006183754672	-1.104907248523533	1.540925924760242	0.1807295907348312	1.952291052709448	-6.730770109248987	-0.05673698611824456	-2.318606048702161	-0.02430457197612392	-5.338091792624761	-5.33809179262523	-0.6253592502637446	-0.006063679667970018	-0.8317369968955544	-0.5382272506505715	-1.084119847604577e-08	6.47612815467409e-09	7.616435942038502e-08	7.145824388876845e-09	-2.289472991284899e-08	1.309208053310025e-07	-2.16900491796468e-08
1.03	-0.5418798641225636	-0.07343550267806384	0.573652787845458	1.825314153304567	-0.4690025763399115	0.01725820538479751	-0.2617609744396716	1.399572850484839	1.399572850484813	-0.0812037208025876	-0.1745273695331767	0.2397018786124135	-0.0005614159749088618	0.03068693880355637	0.01785736267780597	0.06386324388948987	-0.2142269898925899	-0.004106548643715178	-0.0699523518519886	0.0001475911257486849	-0.1642027473367345	-0.1642027473367316	-0.02288424670343357	0.000376846676201066	-0.001819004099952573	-0.005359312381790982	-0.3322698851248276	0.02218789386260698	0.0003813161511500272	-0.3020006770383803	0.01941573353269132	0.02713297308384423	0.2838480814968277	-33.57349229117307	-6.303449838211296	1.123722242765945	10.75186632476503	-641.7070791524421	-45.17730209283761	-1.1290616829809	1.515047288157741	0.1810301109016305	1.943662905109503	-6.682504885737839	-0.009156385800876658	-2.334097085393329	0.003314147951028629	-5.333873332366278	-5.333873332364896	-0.5382902945362422	0.06018259198677003	-0.8329513970509524	-0.4762083757212366	-1.900847284371359e-08	-1.424303716213851e-09	1.195958063086152e-07	9.643199115987394e-09	-3.336433243614523e-08	1.781890105459396e-07	-3.324676575399719e-08
